<?xml version="1.0" encoding="UTF-8" standalone="no"?>
<!DOCTYPE svg PUBLIC "-//W3C//DTD SVG 1.1//EN"
 "http://www.w3.org/Graphics/SVG/1.1/DTD/svg11.dtd">
<!-- Generated by graphviz version 2.38.0 (20140413.2041)
 -->
<!-- Title: G Pages: 1 -->
<svg width="598pt" height="528pt"
 viewBox="0.00 0.00 598.00 528.00" xmlns="http://www.w3.org/2000/svg" xmlns:xlink="http://www.w3.org/1999/xlink">
<g id="graph0" class="graph" transform="scale(1 1) rotate(0) translate(4 524)">
<title>G</title>
<polygon fill="white" stroke="none" points="-4,4 -4,-524 594,-524 594,4 -4,4"/>
<g id="clust1" class="cluster"><title>cluster_Global</title>
<path fill="none" stroke="gray" d="M20,-8C20,-8 570,-8 570,-8 576,-8 582,-14 582,-20 582,-20 582,-500 582,-500 582,-506 576,-512 570,-512 570,-512 20,-512 20,-512 14,-512 8,-506 8,-500 8,-500 8,-20 8,-20 8,-14 14,-8 20,-8"/>
<text text-anchor="middle" x="295" y="-499.2" font-family="Times,serif" font-size="11.00" fill="gray">Global</text>
</g>
<!-- \\swoole_lock -->
<g id="node1" class="node"><title>\\swoole_lock</title>
<polygon fill="none" stroke="black" points="533.5,-484 442.5,-484 442.5,-448 533.5,-448 533.5,-484"/>
<text text-anchor="middle" x="488" y="-463.2" font-family="Courier,monospace" font-size="11.00">swoole_lock</text>
</g>
<!-- \\swoole_client -->
<g id="node2" class="node"><title>\\swoole_client</title>
<polygon fill="none" stroke="black" points="540,-430 436,-430 436,-394 540,-394 540,-430"/>
<text text-anchor="middle" x="488" y="-409.2" font-family="Courier,monospace" font-size="11.00">swoole_client</text>
</g>
<!-- \\swoole_http_request -->
<g id="node3" class="node"><title>\\swoole_http_request</title>
<polygon fill="none" stroke="black" points="560.5,-376 415.5,-376 415.5,-340 560.5,-340 560.5,-376"/>
<text text-anchor="middle" x="488" y="-355.2" font-family="Courier,monospace" font-size="11.00">swoole_http_request</text>
</g>
<!-- \\swoole_websocket_server -->
<g id="node4" class="node"><title>\\swoole_websocket_server</title>
<polygon fill="none" stroke="black" points="574,-322 402,-322 402,-286 574,-286 574,-322"/>
<text text-anchor="middle" x="488" y="-301.2" font-family="Courier,monospace" font-size="11.00">swoole_websocket_server</text>
</g>
<!-- \\swoole_http_server -->
<g id="node7" class="node"><title>\\swoole_http_server</title>
<polygon fill="none" stroke="black" points="330,-322 192,-322 192,-286 330,-286 330,-322"/>
<text text-anchor="middle" x="261" y="-301.2" font-family="Courier,monospace" font-size="11.00">swoole_http_server</text>
</g>
<!-- \\swoole_websocket_server&#45;&gt;\\swoole_http_server -->
<g id="edge1" class="edge"><title>\\swoole_websocket_server&#45;&gt;\\swoole_http_server</title>
<path fill="none" stroke="black" d="M401.937,-304C381.696,-304 360.193,-304 340.273,-304"/>
<polygon fill="none" stroke="black" points="340.015,-300.5 330.015,-304 340.015,-307.5 340.015,-300.5"/>
</g>
<!-- \\swoole_buffer -->
<g id="node5" class="node"><title>\\swoole_buffer</title>
<polygon fill="none" stroke="black" points="540,-268 436,-268 436,-232 540,-232 540,-268"/>
<text text-anchor="middle" x="488" y="-247.2" font-family="Courier,monospace" font-size="11.00">swoole_buffer</text>
</g>
<!-- \\swoole_process -->
<g id="node6" class="node"><title>\\swoole_process</title>
<polygon fill="none" stroke="black" points="543.5,-214 432.5,-214 432.5,-178 543.5,-178 543.5,-214"/>
<text text-anchor="middle" x="488" y="-193.2" font-family="Courier,monospace" font-size="11.00">swoole_process</text>
</g>
<!-- \\swoole_server -->
<g id="node9" class="node"><title>\\swoole_server</title>
<polygon fill="none" stroke="black" points="120,-322 16,-322 16,-286 120,-286 120,-322"/>
<text text-anchor="middle" x="68" y="-301.2" font-family="Courier,monospace" font-size="11.00">swoole_server</text>
</g>
<!-- \\swoole_http_server&#45;&gt;\\swoole_server -->
<g id="edge2" class="edge"><title>\\swoole_http_server&#45;&gt;\\swoole_server</title>
<path fill="none" stroke="black" d="M191.854,-304C171.691,-304 149.753,-304 130.068,-304"/>
<polygon fill="none" stroke="black" points="130.001,-300.5 120.001,-304 130.001,-307.5 130.001,-300.5"/>
</g>
<!-- \\swoole_atomic -->
<g id="node8" class="node"><title>\\swoole_atomic</title>
<polygon fill="none" stroke="black" points="540,-160 436,-160 436,-124 540,-124 540,-160"/>
<text text-anchor="middle" x="488" y="-139.2" font-family="Courier,monospace" font-size="11.00">swoole_atomic</text>
</g>
<!-- \\swoole_http_response -->
<g id="node10" class="node"><title>\\swoole_http_response</title>
<polygon fill="none" stroke="black" points="564,-106 412,-106 412,-70 564,-70 564,-106"/>
<text text-anchor="middle" x="488" y="-85.2" font-family="Courier,monospace" font-size="11.00">swoole_http_response</text>
</g>
<!-- \\swoole_table -->
<g id="node11" class="node"><title>\\swoole_table</title>
<polygon fill="none" stroke="black" points="537,-52 439,-52 439,-16 537,-16 537,-52"/>
<text text-anchor="middle" x="488" y="-31.2" font-family="Courier,monospace" font-size="11.00">swoole_table</text>
</g>
</g>
</svg>
